{
  "accessors": [
    {
      "bufferView": 2,
      "componentType": 5126,
      "count": 22648,
      "max": [
        0.38707101345062256,
        0.30750399827957153,
        0.27714499831199646
      ],
      "min": [
        -0.3753649890422821,
        -0.4555250108242035,
        -0.08107099682092667
      ],
      "type": "VEC3"
    },
    {
      "bufferView": 2,
      "byteOffset": 271776,
      "componentType": 5126,
      "count": 22648,
      "max": [
        0.9999291896820068,
        0.9997950196266174,
        0.9999974370002747
      ],
      "min": [
        -0.999824583530426,
        -0.9998928308486938,
        -0.9999482035636902
      ],
      "type": "VEC3"
    },
    {
      "bufferView": 3,
      "componentType": 5126,
      "count": 22648,
      "max": [
        0.9999827742576599,
        0.9999659657478333,
        0.9998844861984253,
        -1.0
      ],
      "min": [
        -0.9996914863586426,
        -0.9999660849571228,
        -0.9999003410339355,
        -1.0
      ],
      "type": "VEC4"
    },
    {
      "bufferView": 1,
      "componentType": 5126,
      "count": 22648,
      "max": [
        0.9999610185623169,
        0.9999880194664001
      ],
      "min": [
        4.999999873689376e-05,
        3.7000001611886546e-05
      ],
      "type": "VEC2"
    },
    {
      "bufferView": 0,
      "componentType": 5125,
      "count": 106698,
      "type": "SCALAR"
    }
  ],
  "asset": {
    "extras": {
      "author": "Cheap Objects (https://sketchfab.com/ovidiuclop)",
      "license": "CC-BY-4.0 (http://creativecommons.org/licenses/by/4.0/)",
      "source": "https://sketchfab.com/3d-models/mcdonalds-big-mac-9113065f96c244d299462e5ee72ec9f1",
      "title": "McDonald's Big Mac"
    },
    "generator": "Sketchfab-15.47.0",
    "version": "2.0"
  },
  "bufferViews": [
    {
      "buffer": 0,
      "byteLength": 426792,
      "name": "floatBufferViews",
      "target": 34963
    },
    {
      "buffer": 0,
      "byteLength": 181184,
      "byteOffset": 426792,
      "byteStride": 8,
      "name": "floatBufferViews",
      "target": 34962
    },
    {
      "buffer": 0,
      "byteLength": 543552,
      "byteOffset": 607976,
      "byteStride": 12,
      "name": "floatBufferViews",
      "target": 34962
    },
    {
      "buffer": 0,
      "byteLength": 362368,
      "byteOffset": 1151528,
      "byteStride": 16,
      "name": "floatBufferViews",
      "target": 34962
    }
  ],
  "buffers": [
    {
      "byteLength": 1513896,
      "uri": "scene.bin"
    }
  ],
  "images": [
    {
      "uri": "textures/textured_0_baseColor.jpeg"
    },
    {
      "uri": "textures/textured_0_normal.png"
    }
  ],
  "materials": [
    {
      "doubleSided": true,
      "name": "textured_0",
      "normalTexture": {
        "index": 1
      },
      "pbrMetallicRoughness": {
        "baseColorTexture": {
          "index": 0
        },
        "metallicFactor": 0.0
      }
    }
  ],
  "meshes": [
    {
      "name": "Object_0",
      "primitives": [
        {
          "attributes": {
            "NORMAL": 1,
            "POSITION": 0,
            "TANGENT": 2,
            "TEXCOORD_0": 3
          },
          "indices": 4,
          "material": 0,
          "mode": 4
        }
      ]
    }
  ],
  "nodes": [
    {
      "children": [
        1
      ],
      "matrix": [
        1.0,
        0.0,
        0.0,
        0.0,
        0.0,
        2.220446049250313e-16,
        -1.0,
        0.0,
        0.0,
        1.0,
        2.220446049250313e-16,
        0.0,
        0.0,
        0.0,
        0.0,
        1.0
      ],
      "name": "Sketchfab_model"
    },
    {
      "children": [
        2
      ],
      "name": "textured.obj.cleaner.materialmerger.gles"
    },
    {
      "mesh": 0,
      "name": "Object_2"
    }
  ],
  "samplers": [
    {
      "magFilter": 9729,
      "minFilter": 9987,
      "wrapS": 10497,
      "wrapT": 10497
    }
  ],
  "scene": 0,
  "scenes": [
    {
      "name": "Sketchfab_Scene",
      "nodes": [
        0
      ]
    }
  ],
  "textures": [
    {
      "sampler": 0,
      "source": 0
    },
    {
      "sampler": 0,
      "source": 1
    }
  ]
}
